<svg width="332" height="171" viewBox="0 0 332 171" fill="none" xmlns="http://www.w3.org/2000/svg">
<path d="M319.61 133.527L67.9746 171V99.4728L319.61 62V133.527Z" fill="#FF1B6A"/>
<path d="M268.61 71.5272L16.9746 109V37.4728L268.61 0V71.5272Z" fill="white"/>
<path d="M136.571 124.726C136.096 121.797 136.711 119.181 138.417 116.879C140.139 114.556 142.593 113.135 145.781 112.616C147.789 112.289 149.708 112.402 151.538 112.955L152.26 117.404C150.358 116.523 148.422 116.242 146.45 116.564C144.534 116.876 143.066 117.73 142.044 119.125C141.023 120.521 140.66 122.131 140.957 123.955C141.253 125.779 142.108 127.2 143.521 128.218C144.953 129.233 146.673 129.577 148.681 129.25C150.653 128.929 152.441 128.004 154.046 126.475L154.773 130.952C153.259 132.107 151.378 132.867 149.13 133.234C145.943 133.753 143.168 133.202 140.806 131.583C138.462 129.96 137.05 127.674 136.571 124.726ZM157.86 131.499L154.609 111.49L160.882 110.468C166.631 109.531 169.831 111.071 170.483 115.088C170.696 116.396 170.531 117.595 169.99 118.686C169.448 119.777 168.558 120.64 167.319 121.277L174.33 128.816L169.273 129.64L162.932 122.559L160.97 122.879L162.254 130.783L157.86 131.499ZM160.435 119.59L162.646 119.23C163.936 119.02 164.872 118.669 165.454 118.177C166.054 117.682 166.282 116.992 166.139 116.108C165.995 115.223 165.551 114.643 164.806 114.367C164.08 114.088 162.916 114.08 161.313 114.341L159.627 114.615L160.435 119.59ZM174.767 128.745L179.642 107.411L183.897 106.718L195.273 125.404L190.575 126.17L188.289 122.23L180.22 123.544L179.272 128.011L174.767 128.745ZM181.469 117.61L181.013 119.869L186.402 118.991L185.209 116.888C184.173 115.052 183.29 113.455 182.559 112.099L182.504 112.108C182.187 113.881 181.841 115.715 181.469 117.61ZM200.5 124.552L189.595 105.79L194.32 105.02L198.954 113.287C200.014 115.156 200.954 116.866 201.773 118.416L201.828 118.407C202.098 116.926 202.465 114.994 202.929 112.611L204.794 103.314L209.299 102.58L204.922 123.832L200.5 124.552ZM210.121 122.985L214.996 101.652L219.252 100.958L230.627 119.644L225.929 120.41L223.644 116.47L215.574 117.785L214.626 122.251L210.121 122.985ZM216.823 111.851L216.367 114.109L221.756 113.231L220.563 111.128C219.527 109.292 218.644 107.696 217.913 106.34L217.858 106.349C217.541 108.121 217.196 109.955 216.823 111.851ZM232.217 118.251L231.499 113.828C232.617 114.308 233.776 114.63 234.975 114.794C236.189 114.937 237.23 114.937 238.096 114.796C238.943 114.658 239.587 114.374 240.028 113.943C240.487 113.508 240.658 112.932 240.541 112.214C240.493 111.919 240.395 111.661 240.245 111.439C240.096 111.218 239.935 111.045 239.764 110.922C239.593 110.798 239.329 110.69 238.974 110.597C238.618 110.503 238.314 110.439 238.063 110.404C237.812 110.37 237.416 110.321 236.876 110.257C236.355 110.191 235.939 110.136 235.629 110.092C233.903 109.825 232.501 109.344 231.424 108.649C230.362 107.933 229.702 106.783 229.445 105.199C229.142 103.338 229.539 101.76 230.633 100.466C231.746 99.1686 233.362 98.3475 235.481 98.0023C237.784 97.6271 239.898 97.7745 241.822 98.4444L242.527 102.784C241.43 102.319 240.293 102.013 239.115 101.864C237.937 101.716 236.925 101.71 236.077 101.848C234.364 102.128 233.609 102.894 233.813 104.147C233.869 104.497 233.973 104.782 234.122 105.004C234.29 105.222 234.545 105.398 234.889 105.532C235.247 105.643 235.554 105.726 235.808 105.779C236.063 105.832 236.5 105.903 237.119 105.991C237.736 106.061 238.199 106.118 238.508 106.162C240.351 106.448 241.815 106.956 242.898 107.688C243.981 108.419 244.655 109.595 244.918 111.217C245.232 113.151 244.808 114.79 243.646 116.133C242.499 117.455 240.838 118.293 238.664 118.647C236.398 119.016 234.249 118.884 232.217 118.251Z" fill="white"/>
<path d="M100.359 72.111L97.0318 49.4348L91.1091 52.6102L90.2101 46.4838L102.535 39.8451L107.123 71.1153L100.359 72.111ZM134.641 63.2832C133.007 66.3634 130.374 68.1707 126.744 68.7051C123.114 69.2394 120.074 68.2672 117.624 65.7882C115.374 63.4827 113.865 59.7206 113.1 54.5018C112.334 49.283 112.697 45.2453 114.191 42.3888C115.825 39.3086 118.457 37.5013 122.087 36.9669C125.717 36.4325 128.757 37.4048 131.207 39.8838C133.458 42.1893 134.966 45.9514 135.732 51.1702C136.497 56.389 136.134 60.4267 134.641 63.2832ZM122.509 61.4617C123.465 62.4509 124.581 62.8516 125.858 62.6637C127.134 62.4759 128.088 61.7704 128.72 60.5474C129.484 59.044 129.565 56.236 128.961 52.1234C128.366 48.0675 127.487 45.4298 126.323 44.2103C125.394 43.2169 124.278 42.8162 122.974 43.0082C121.669 43.2003 120.715 43.9057 120.111 45.1246C119.351 46.6563 119.271 49.4643 119.87 53.5486C120.465 57.6045 121.345 60.2422 122.509 61.4617ZM161.354 59.3509C159.72 62.4311 157.088 64.2383 153.457 64.7727C149.827 65.3071 146.787 64.3348 144.337 61.8558C142.087 59.5504 140.578 55.7882 139.813 50.5695C139.047 45.3507 139.411 41.313 140.904 38.4564C142.538 35.3763 145.17 33.569 148.8 33.0346C152.43 32.5002 155.47 33.4725 157.92 35.9515C160.171 38.257 161.679 42.0191 162.445 47.2379C163.211 52.4566 162.847 56.4943 161.354 59.3509ZM149.222 57.5293C150.178 58.5186 151.295 58.9193 152.571 58.7314C153.847 58.5435 154.801 57.8381 155.433 56.615C156.197 55.1117 156.278 52.3037 155.674 48.191C155.079 44.1351 154.2 41.4975 153.036 40.278C152.108 39.2845 150.991 38.8839 149.687 39.0759C148.382 39.2679 147.428 39.9734 146.825 41.1923C146.064 42.724 145.984 45.532 146.583 49.6163C147.178 53.6722 148.058 56.3099 149.222 57.5293ZM188.067 55.4186C186.433 58.4987 183.801 60.306 180.17 60.8404C176.54 61.3748 173.5 60.4025 171.05 57.9235C168.8 55.618 167.292 51.8559 166.526 46.6371C165.76 41.4183 166.124 37.3807 167.617 34.5241C169.251 31.4439 171.883 29.6367 175.513 29.1023C179.143 28.5679 182.183 29.5402 184.633 32.0191C186.884 34.3246 188.392 38.0868 189.158 43.3055C189.924 48.5243 189.56 52.562 188.067 55.4186ZM175.935 53.597C176.891 54.5863 178.008 54.987 179.284 54.7991C180.56 54.6112 181.514 53.9058 182.146 52.6827C182.91 51.1793 182.991 48.3713 182.387 44.2587C181.792 40.2028 180.913 37.5651 179.749 36.3456C178.821 35.3522 177.704 34.9515 176.4 35.1436C175.095 35.3356 174.141 36.0411 173.538 37.26C172.777 38.7917 172.697 41.5997 173.296 45.6839C173.891 49.7398 174.771 52.3775 175.935 53.597Z" fill="#222C6E"/>
</svg>
